<?xml version="1.0" encoding="UTF-8"?>
<!-- Generator: visioncortex VTracer 0.6.3 -->
<svg version="1.1" xmlns="http://www.w3.org/2000/svg" width="1280" height="1280">
<path d="M0 0 C2.48 -0 4.97 -0 7.45 -0.01 C13.47 -0.01 19.49 -0 25.5 0.01 C32.51 0.03 39.52 0.03 46.53 0.03 C59.04 0.04 71.54 0.05 84.04 0.08 C96.17 0.1 108.3 0.11 120.44 0.12 C121.19 0.12 121.94 0.12 122.71 0.12 C124.22 0.12 125.73 0.12 127.23 0.12 C128.35 0.12 128.35 0.12 129.49 0.12 C130.6 0.12 130.6 0.12 131.74 0.12 C143.31 0.12 154.88 0.13 166.44 0.15 C170.64 0.15 174.83 0.15 179.03 0.16 C186.29 0.16 193.55 0.17 200.81 0.19 C203.23 0.19 205.65 0.2 208.06 0.2 C211.35 0.2 214.63 0.21 217.91 0.22 C218.88 0.22 219.85 0.21 220.85 0.21 C221.72 0.22 222.6 0.22 223.5 0.23 C224.63 0.23 224.63 0.23 225.79 0.23 C227.52 0.36 227.52 0.36 228.52 1.36 C228.62 4.3 228.66 7.22 228.65 10.17 C228.65 11.5 228.65 11.5 228.66 12.85 C228.66 14.72 228.66 16.59 228.65 18.47 C228.65 21.34 228.65 24.22 228.66 27.1 C228.66 28.91 228.66 30.73 228.65 32.54 C228.66 33.41 228.66 34.28 228.66 35.17 C228.64 41.24 228.64 41.24 227.52 42.36 C224.4 42.46 221.31 42.49 218.19 42.49 C217.2 42.49 216.21 42.49 215.19 42.49 C211.84 42.5 208.49 42.5 205.14 42.5 C202.74 42.5 200.35 42.5 197.96 42.51 C192.8 42.52 187.64 42.52 182.47 42.53 C174.31 42.53 166.14 42.55 157.98 42.57 C155.19 42.57 152.4 42.58 149.6 42.59 C148.91 42.59 148.21 42.59 147.49 42.59 C139.54 42.61 131.59 42.62 123.64 42.64 C122.55 42.64 122.55 42.64 121.43 42.64 C109.66 42.67 97.89 42.68 86.12 42.68 C74.04 42.69 61.96 42.72 49.88 42.75 C43.09 42.77 36.31 42.78 29.52 42.78 C23.14 42.77 16.75 42.79 10.37 42.82 C8.03 42.82 5.68 42.82 3.34 42.82 C0.14 42.81 -3.06 42.82 -6.26 42.84 C-7.19 42.84 -8.11 42.83 -9.07 42.82 C-16.07 42.91 -21.56 44.52 -26.67 49.48 C-30.65 55.8 -33.61 62.5 -36.32 69.45 C-39.72 77.95 -43.39 86.38 -47.59 94.52 C-48.63 96.66 -49.49 98.83 -50.35 101.04 C-52.3 106.02 -54.52 110.83 -56.78 115.67 C-61.23 125.26 -65.47 134.94 -69.6 144.67 C-71.92 150.1 -74.36 155.46 -76.85 160.81 C-81.25 170.36 -85.49 179.99 -89.6 189.67 C-91.45 194 -93.36 198.28 -95.35 202.54 C-98.33 208.93 -101.06 215.41 -103.76 221.91 C-104.09 222.69 -104.41 223.47 -104.74 224.27 C-105.03 224.96 -105.32 225.65 -105.61 226.36 C-106.21 227.75 -106.86 229.11 -107.55 230.46 C-113.49 242.59 -111.34 259.98 -107.48 272.36 C-101.38 290.03 -90.82 303.16 -74.48 312.36 C-63.04 317.68 -52.23 319.66 -39.69 319.63 C-38.54 319.63 -37.4 319.64 -36.22 319.64 C-32.39 319.66 -28.57 319.66 -24.75 319.66 C-22 319.67 -19.25 319.68 -16.5 319.68 C-10.6 319.7 -4.69 319.72 1.22 319.72 C9.76 319.73 18.3 319.75 26.84 319.78 C40.7 319.82 54.56 319.85 68.42 319.88 C69.25 319.88 70.08 319.88 70.93 319.88 C72.18 319.89 72.18 319.89 73.45 319.89 C85.23 319.91 97.01 319.94 108.79 319.96 C110.04 319.97 110.04 319.97 111.31 319.97 C125.13 320 138.95 320.04 152.77 320.07 C161.3 320.1 169.82 320.12 178.35 320.13 C184.18 320.14 190.01 320.15 195.84 320.17 C199.21 320.18 202.58 320.18 205.95 320.19 C209.59 320.19 213.23 320.2 216.88 320.21 C217.95 320.21 219.03 320.21 220.14 320.21 C221.1 320.21 222.07 320.22 223.07 320.22 C223.91 320.22 224.75 320.23 225.62 320.23 C227.52 320.36 227.52 320.36 228.52 321.36 C228.62 323.16 228.65 324.97 228.65 326.78 C228.65 327.96 228.65 329.14 228.66 330.35 C228.65 332.31 228.65 332.31 228.65 334.31 C228.65 335.68 228.65 337.06 228.66 338.44 C228.66 342.19 228.66 345.94 228.66 349.69 C228.65 353.61 228.65 357.53 228.66 361.45 C228.66 368.03 228.66 374.61 228.65 381.19 C228.65 388.81 228.65 396.43 228.65 404.05 C228.66 410.58 228.66 417.11 228.66 423.64 C228.65 427.54 228.65 431.45 228.66 435.35 C228.66 439.02 228.66 442.69 228.65 446.37 C228.65 448.36 228.65 450.36 228.66 452.36 C228.65 454.13 228.65 454.13 228.65 455.93 C228.65 456.96 228.65 457.99 228.65 459.05 C228.52 461.36 228.52 461.36 227.52 462.36 C225.41 462.47 223.3 462.51 221.19 462.53 C220.53 462.54 219.86 462.54 219.18 462.55 C217.74 462.56 216.29 462.58 214.85 462.59 C212.55 462.6 210.25 462.63 207.96 462.65 C201.42 462.72 194.89 462.78 188.35 462.83 C184.36 462.87 180.36 462.91 176.37 462.95 C174.85 462.97 173.34 462.98 171.83 462.99 C146.35 463.14 125.01 469.6 105.01 485.47 C102.52 487.36 102.52 487.36 100.25 488.43 C98.16 489.3 98.16 489.3 97.52 492.36 C96.86 492.36 96.2 492.36 95.52 492.36 C95.28 492.91 95.03 493.46 94.78 494.02 C93.26 496.84 91.39 499.16 89.4 501.67 C75.59 519.69 67.24 542.44 69.52 565.36 C71.07 570.77 73.73 574.32 78.52 577.36 C82.34 579.17 85.37 579.61 89.58 579.63 C90.8 579.64 92.02 579.65 93.27 579.66 C94.61 579.66 95.95 579.66 97.29 579.66 C98.71 579.67 100.13 579.68 101.54 579.68 C104.59 579.7 107.64 579.72 110.69 579.72 C115.5 579.73 120.32 579.76 125.13 579.79 C132.74 579.83 140.35 579.86 147.96 579.89 C161.6 579.94 175.25 580 188.89 580.07 C193.68 580.1 198.47 580.12 203.26 580.13 C206.23 580.14 209.21 580.16 212.18 580.17 C213.56 580.18 214.94 580.18 216.33 580.19 C218.21 580.19 220.09 580.2 221.97 580.21 C223.02 580.22 224.08 580.22 225.16 580.22 C227.52 580.36 227.52 580.36 228.52 581.36 C228.62 583.68 228.66 585.98 228.65 588.3 C228.65 589.04 228.65 589.77 228.65 590.53 C228.66 593.01 228.65 595.5 228.65 597.98 C228.65 599.75 228.65 601.52 228.66 603.29 C228.66 608.12 228.66 612.95 228.66 617.77 C228.65 622.81 228.65 627.85 228.66 632.89 C228.66 641.35 228.66 649.82 228.65 658.28 C228.65 668.08 228.65 677.88 228.65 687.68 C228.66 696.08 228.66 704.48 228.66 712.88 C228.65 717.9 228.65 722.92 228.66 727.95 C228.66 732.67 228.66 737.39 228.65 742.11 C228.65 743.85 228.65 745.59 228.65 747.32 C228.66 749.69 228.65 752.05 228.65 754.41 C228.65 755.11 228.65 755.8 228.65 756.52 C228.63 761.24 228.63 761.24 227.52 762.36 C225.51 762.46 223.5 762.49 221.49 762.49 C219.52 762.49 219.52 762.49 217.5 762.5 C216.02 762.5 214.53 762.5 213.05 762.5 C211.49 762.5 209.93 762.5 208.37 762.51 C204.06 762.51 199.75 762.52 195.44 762.52 C190.8 762.52 186.16 762.53 181.52 762.53 C171.36 762.55 161.2 762.55 151.04 762.56 C144.7 762.56 138.35 762.56 132.01 762.57 C114.43 762.58 96.86 762.59 79.29 762.59 C78.16 762.59 77.04 762.59 75.88 762.59 C74.75 762.59 73.62 762.6 72.46 762.6 C70.17 762.6 67.89 762.6 65.6 762.6 C64.46 762.6 63.33 762.6 62.16 762.6 C43.81 762.6 25.46 762.62 7.11 762.64 C-11.73 762.67 -30.58 762.68 -49.42 762.68 C-60 762.68 -70.57 762.69 -81.15 762.7 C-90.17 762.72 -99.18 762.72 -108.2 762.72 C-112.8 762.71 -117.39 762.71 -121.99 762.73 C-126.2 762.74 -130.42 762.74 -134.64 762.73 C-136.16 762.72 -137.67 762.73 -139.19 762.74 C-155.95 762.83 -172.09 760.23 -187.48 753.36 C-189.08 752.73 -190.69 752.1 -192.29 751.48 C-197.51 749.41 -202.5 746.94 -207.48 744.36 C-207.48 743.7 -207.48 743.04 -207.48 742.36 C-208.06 742.23 -208.63 742.11 -209.23 741.98 C-211.5 741.35 -213.4 740.47 -215.48 739.36 C-215.48 738.7 -215.48 738.04 -215.48 737.36 C-216.02 737.11 -216.55 736.86 -217.1 736.61 C-220.06 735.05 -222.78 733.32 -225.48 731.36 C-225.48 730.7 -225.48 730.04 -225.48 729.36 C-226.06 729.09 -226.63 728.82 -227.23 728.54 C-229.53 727.33 -231.5 726.05 -233.48 724.36 C-233.48 723.7 -233.48 723.04 -233.48 722.36 C-234.14 722.36 -234.8 722.36 -235.48 722.36 C-240.48 716.88 -240.48 716.88 -240.48 714.36 C-241.47 714.03 -242.46 713.7 -243.48 713.36 C-244.87 711.8 -244.87 711.8 -246.17 709.92 C-246.82 708.99 -246.82 708.99 -247.49 708.05 C-248.48 706.36 -248.48 706.36 -248.48 704.36 C-249.14 704.36 -249.8 704.36 -250.48 704.36 C-263.79 681.23 -263.79 681.23 -266.48 670.36 C-266.97 668.91 -267.47 667.48 -267.98 666.04 C-271.37 656.02 -273.6 645.54 -273.61 634.96 C-273.62 634.23 -273.62 633.51 -273.62 632.77 C-273.63 630.35 -273.63 627.94 -273.62 625.53 C-273.63 623.79 -273.63 622.06 -273.63 620.32 C-273.64 615.61 -273.65 610.91 -273.65 606.2 C-273.65 603.26 -273.65 600.31 -273.65 597.37 C-273.66 587.08 -273.67 576.8 -273.66 566.51 C-273.66 556.95 -273.67 547.38 -273.69 537.81 C-273.7 529.59 -273.71 521.36 -273.71 513.13 C-273.71 508.22 -273.71 503.31 -273.72 498.41 C-273.73 493.79 -273.73 489.16 -273.72 484.54 C-273.72 482.86 -273.73 481.17 -273.73 479.48 C-273.76 471.14 -273.59 463.09 -271.94 454.88 C-271.46 452.26 -271.25 449.7 -271.1 447.04 C-270.63 441.19 -269.11 435.7 -267.52 430.07 C-266.59 426.74 -265.77 423.41 -264.98 420.04 C-263.87 415.56 -262.43 411.4 -260.62 407.15 C-259.51 404.44 -258.54 401.69 -257.57 398.92 C-250.41 378.83 -239.01 359.8 -225.48 343.36 C-224.08 341.61 -222.69 339.86 -221.29 338.11 C-220.02 336.52 -218.75 334.94 -217.48 333.36 C-216.77 332.47 -216.07 331.59 -215.34 330.67 C-213.8 328.75 -212.34 326.97 -210.48 325.36 C-209.82 325.36 -209.16 325.36 -208.48 325.36 C-208.25 324.81 -208.02 324.26 -207.78 323.69 C-206.12 320.71 -204.01 318.52 -201.67 316.04 C-194.91 308.95 -194.91 308.95 -190.48 300.36 C-189.82 300.36 -189.16 300.36 -188.48 300.36 C-188.15 298.71 -187.82 297.06 -187.48 295.36 C-186.82 295.36 -186.16 295.36 -185.48 295.36 C-185.31 294.31 -185.31 294.31 -185.13 293.24 C-184.41 290.05 -183.32 287.2 -182.1 284.17 C-176.76 270.43 -174.57 257.47 -174.04 242.79 C-173.46 228.45 -169.88 217.09 -163.48 204.36 C-162.84 203.05 -162.2 201.75 -161.56 200.45 C-158.18 193.58 -154.66 186.79 -151.04 180.04 C-147.39 173.23 -144.05 166.31 -140.78 159.3 C-138.2 153.78 -135.42 148.41 -132.5 143.05 C-129.83 138.11 -127.41 133.07 -125.04 127.98 C-121.85 121.13 -118.45 114.43 -114.86 107.78 C-111.61 101.72 -108.69 95.53 -105.78 89.3 C-103.49 84.4 -101.07 79.61 -98.48 74.86 C-94.53 67.62 -91.03 60.19 -87.53 52.72 C-85.27 47.89 -82.91 43.11 -80.48 38.36 C-79.82 38.36 -79.16 38.36 -78.48 38.36 C-78.33 37.5 -78.33 37.5 -78.18 36.63 C-76.26 30.41 -70.3 24.63 -65.48 20.36 C-64.82 20.36 -64.16 20.36 -63.48 20.36 C-63.48 19.7 -63.48 19.04 -63.48 18.36 C-61.26 16.65 -59.06 15.08 -56.73 13.54 C-55.71 12.87 -55.71 12.87 -54.66 12.18 C-48.85 8.44 -43.02 5.63 -36.48 3.36 C-35.71 3.08 -34.94 2.8 -34.15 2.51 C-23.07 -0.86 -11.45 -0.05 0 0 Z M-227.35 469.29 C-231.17 474.8 -231.78 479.26 -231.77 485.88 C-231.78 486.72 -231.78 487.57 -231.79 488.44 C-231.81 491.23 -231.81 494.02 -231.82 496.81 C-231.82 498.76 -231.83 500.71 -231.84 502.65 C-231.85 506.73 -231.85 510.81 -231.85 514.89 C-231.85 520.11 -231.88 525.32 -231.91 530.54 C-231.93 534.56 -231.94 538.58 -231.94 542.6 C-231.94 544.52 -231.95 546.44 -231.96 548.37 C-231.98 551.06 -231.98 553.75 -231.97 556.45 C-231.98 557.24 -231.99 558.02 -232 558.83 C-231.93 564.98 -230.31 570.29 -226.07 574.89 C-220.66 579.65 -215.81 580.65 -208.79 580.62 C-208.03 580.63 -207.26 580.63 -206.47 580.64 C-203.91 580.65 -201.34 580.65 -198.78 580.65 C-196.94 580.65 -195.1 580.66 -193.26 580.67 C-188.26 580.68 -183.27 580.69 -178.27 580.69 C-175.15 580.69 -172.03 580.7 -168.91 580.7 C-158.01 580.72 -147.11 580.73 -136.22 580.73 C-126.07 580.73 -115.92 580.75 -105.77 580.78 C-97.05 580.8 -88.33 580.82 -79.61 580.81 C-74.4 580.81 -69.2 580.82 -63.99 580.84 C-59.09 580.86 -54.19 580.86 -49.3 580.85 C-47.5 580.84 -45.71 580.85 -43.91 580.86 C-41.46 580.88 -39 580.87 -36.54 580.85 C-35.84 580.86 -35.14 580.87 -34.41 580.88 C-28.51 580.8 -23.3 578.96 -18.94 574.94 C-12.59 567.71 -13.03 560.52 -13.48 551.36 C-15.25 530.38 -24.48 512.5 -37.48 496.36 C-38.19 495.39 -38.19 495.39 -38.92 494.41 C-48.95 481.5 -65.57 473 -80.48 467.36 C-81.24 467.06 -82 466.76 -82.78 466.45 C-97.39 461.09 -113.1 462.03 -128.41 462.02 C-130.92 462.01 -133.44 462.01 -135.96 462 C-141.22 461.99 -146.47 461.98 -151.73 461.99 C-157.78 461.99 -163.84 461.97 -169.9 461.93 C-175.76 461.9 -181.62 461.9 -187.48 461.9 C-189.96 461.9 -192.44 461.89 -194.92 461.87 C-198.38 461.85 -201.85 461.86 -205.31 461.87 C-206.33 461.86 -207.35 461.85 -208.39 461.84 C-216.02 461.9 -222.15 463.43 -227.35 469.29 Z M-6.48 612.36 C-6.48 613.02 -6.48 613.68 -6.48 614.36 C-8.48 615.36 -10.48 616.36 -12.48 617.36 C-12.48 618.02 -12.48 618.68 -12.48 619.36 C-13.14 619.36 -13.8 619.36 -14.48 619.36 C-14.48 620.02 -14.48 620.68 -14.48 621.36 C-15.14 621.36 -15.8 621.36 -16.48 621.36 C-18.88 623.99 -18.88 623.99 -19.48 627.36 C-20.14 627.36 -20.8 627.36 -21.48 627.36 C-30.12 642.1 -34.25 657.5 -30.23 674.61 C-28.22 681.7 -25.88 689.35 -21.48 695.36 C-20.82 695.36 -20.16 695.36 -19.48 695.36 C-18.48 697.36 -17.48 699.36 -16.48 701.36 C-15.82 701.36 -15.16 701.36 -14.48 701.36 C-14.48 702.02 -14.48 702.68 -14.48 703.36 C-11 706.99 -11 706.99 -6.48 708.36 C-6.48 709.02 -6.48 709.68 -6.48 710.36 C-4.58 711.32 -2.69 712.28 -0.79 713.23 C0.26 713.77 1.32 714.3 2.41 714.85 C16.57 721.71 31.57 722.17 46.52 717.36 C47.37 717.09 48.22 716.82 49.1 716.55 C56.01 714.1 62.02 710.19 67.52 705.36 C67.52 704.7 67.52 704.04 67.52 703.36 C68.18 703.36 68.84 703.36 69.52 703.36 C69.52 702.7 69.52 702.04 69.52 701.36 C70.18 701.36 70.84 701.36 71.52 701.36 C73.92 698.72 73.92 698.72 74.52 695.36 C75.18 695.36 75.84 695.36 76.52 695.36 C85.39 680.21 89.5 663.71 85.5 646.12 C83.18 639.58 79.78 633.47 76.52 627.36 C75.86 627.36 75.2 627.36 74.52 627.36 C74.52 626.37 74.52 625.38 74.52 624.36 C73.86 624.36 73.2 624.36 72.52 624.36 C72.03 622.87 72.03 622.87 71.52 621.36 C70.86 621.36 70.2 621.36 69.52 621.36 C69.52 620.7 69.52 620.04 69.52 619.36 C68.86 619.36 68.2 619.36 67.52 619.36 C67.03 617.87 67.03 617.87 66.52 616.36 C65.86 616.36 65.2 616.36 64.52 616.36 C64.52 615.7 64.52 615.04 64.52 614.36 C63.53 614.36 62.54 614.36 61.52 614.36 C61.52 613.7 61.52 613.04 61.52 612.36 C60.7 611.95 59.88 611.54 59.04 611.11 C49.52 606.36 49.52 606.36 47.4 605.23 C31.56 597.85 7.38 602.19 -6.48 612.36 Z " fill="#000000" transform="translate(992.479248046875,198.6435546875)"/>
<path d="M0 0 C1.18 -0 1.18 -0 2.38 -0 C5.02 -0.01 7.67 -0.01 10.31 -0 C12.2 -0 14.09 -0.01 15.98 -0.01 C21.13 -0.01 26.27 -0.01 31.42 -0.01 C36.79 -0 42.16 -0.01 47.54 -0.01 C56.56 -0.01 65.58 -0.01 74.6 -0 C85.05 0 95.5 0 105.95 -0.01 C114.9 -0.01 123.86 -0.01 132.81 -0.01 C138.17 -0.01 143.52 -0.01 148.87 -0.01 C153.91 -0.01 158.94 -0.01 163.97 -0 C165.82 -0 167.68 -0 169.53 -0.01 C172.05 -0.01 174.56 -0.01 177.08 0 C177.82 -0 178.57 -0 179.33 -0.01 C184.36 0.01 184.36 0.01 185.48 1.13 C185.58 3.62 185.61 6.08 185.61 8.57 C185.61 9.74 185.61 9.74 185.61 10.93 C185.62 13.52 185.61 16.1 185.61 18.69 C185.61 20.48 185.61 22.27 185.61 24.06 C185.61 27.81 185.61 31.57 185.61 35.33 C185.6 40.15 185.61 44.98 185.61 49.8 C185.61 53.5 185.61 57.2 185.61 60.9 C185.61 62.68 185.61 64.46 185.61 66.24 C185.62 68.72 185.61 71.2 185.61 73.69 C185.61 74.43 185.61 75.17 185.61 75.94 C185.59 81.01 185.59 81.01 184.48 82.13 C182.63 82.23 180.79 82.26 178.94 82.26 C177.74 82.26 176.54 82.27 175.3 82.27 C173.96 82.27 172.62 82.27 171.27 82.27 C169.87 82.27 168.46 82.28 167.05 82.28 C164.02 82.29 160.98 82.29 157.95 82.3 C153.14 82.3 148.34 82.32 143.54 82.34 C141.89 82.34 140.25 82.35 138.61 82.36 C137.37 82.36 137.37 82.36 136.11 82.37 C124.92 82.41 113.74 82.44 102.55 82.45 C95.01 82.46 87.47 82.48 79.93 82.52 C75.94 82.54 71.95 82.55 67.96 82.55 C64.2 82.54 60.44 82.56 56.69 82.59 C54.66 82.6 52.63 82.59 50.6 82.58 C43.42 82.65 38.55 83.19 32.48 87.13 C24.1 95.72 23.22 110.01 21.22 121.37 C20.5 125.03 19.51 128.54 18.48 132.13 C18.25 133.58 18.05 135.04 17.91 136.5 C17.48 140.13 17.48 140.13 16.48 141.13 C16.15 142.72 15.86 144.33 15.6 145.94 C14.71 151.03 13.55 156 12.27 161.01 C9.59 171.35 9.59 171.35 7.85 181.88 C7.48 185.13 7.48 185.13 6.48 186.13 C6.15 187.72 5.86 189.33 5.6 190.94 C4.71 196.03 3.55 201 2.27 206.01 C-0.41 216.35 -0.41 216.35 -2.15 226.88 C-2.52 230.13 -2.52 230.13 -3.52 231.13 C-3.85 232.72 -4.14 234.33 -4.4 235.94 C-5.88 244.47 -8.07 252.82 -10.52 261.13 C-11.84 261.46 -13.16 261.79 -14.52 262.13 C-14.44 283.94 -14.34 305.75 -14.24 327.56 C-14.19 337.69 -14.14 347.81 -14.1 357.94 C-14.07 366.77 -14.03 375.61 -13.98 384.44 C-13.95 389.11 -13.93 393.78 -13.92 398.45 C-13.91 402.86 -13.88 407.27 -13.86 411.67 C-13.85 413.28 -13.84 414.89 -13.84 416.5 C-13.8 443.08 -6.74 465.67 10.48 486.13 C11.39 487.02 12.31 487.92 13.25 488.84 C15.48 491.13 15.48 491.13 15.48 493.13 C16.03 493.37 16.58 493.62 17.15 493.87 C19.96 495.39 22.28 497.26 24.79 499.25 C34.59 506.77 45.05 512.17 56.97 515.44 C59.48 516.13 59.48 516.13 61.48 517.13 C72.45 519.35 83.3 519.42 94.44 519.4 C96.31 519.4 98.17 519.41 100.04 519.41 C104.04 519.43 108.03 519.43 112.03 519.43 C118.36 519.43 124.69 519.45 131.02 519.47 C146.74 519.52 162.47 519.55 178.19 519.57 C190.42 519.59 202.65 519.61 214.89 519.66 C221.17 519.68 227.45 519.69 233.73 519.68 C237.65 519.69 241.57 519.7 245.49 519.72 C247.3 519.72 249.1 519.72 250.9 519.72 C264.8 519.68 278.37 520.44 291.27 526.17 C293.4 527.1 295.49 527.74 297.73 528.38 C308.51 531.91 317.95 538.84 326.48 546.13 C327.69 547.09 328.89 548.04 330.1 549 C330.89 549.7 331.67 550.4 332.48 551.13 C332.48 551.79 332.48 552.45 332.48 553.13 C333.14 553.13 333.8 553.13 334.48 553.13 C336.42 555.24 336.42 555.24 338.6 558 C339.33 558.91 340.05 559.81 340.8 560.74 C342.48 563.13 342.48 563.13 342.48 565.13 C343.14 565.13 343.8 565.13 344.48 565.13 C347.09 568.61 349.25 572.4 351.48 576.13 C352.02 577.03 352.57 577.92 353.13 578.85 C366.23 601.49 369.02 631.55 363.4 656.84 C362.33 660.66 361.07 664.3 359.44 667.92 C358.4 670.21 358.4 670.21 357.53 673.04 C354.67 681.43 350.2 690.3 344.48 697.13 C343.82 697.13 343.16 697.13 342.48 697.13 C342.27 697.81 342.06 698.49 341.85 699.19 C340.05 703.04 337.58 706.2 334.48 709.13 C333.82 709.13 333.16 709.13 332.48 709.13 C332.48 709.79 332.48 710.45 332.48 711.13 C330.87 712.82 330.87 712.82 328.73 714.69 C328.03 715.31 327.33 715.93 326.62 716.57 C324.5 718.11 323.04 718.71 320.48 719.13 C320.48 719.79 320.48 720.45 320.48 721.13 C317 723.74 313.21 725.9 309.48 728.13 C308.13 728.94 308.13 728.94 306.75 729.78 C293.13 737.67 275.71 742.23 259.97 742.27 C259.24 742.27 258.5 742.27 257.74 742.27 C255.29 742.28 252.84 742.28 250.39 742.28 C248.62 742.29 246.86 742.29 245.1 742.3 C241.31 742.31 237.51 742.32 233.72 742.33 C227.71 742.34 221.71 742.36 215.7 742.38 C198.62 742.44 181.54 742.5 164.46 742.53 C155.02 742.55 145.59 742.58 136.15 742.62 C131.16 742.64 126.18 742.65 121.19 742.66 C116.49 742.66 111.79 742.67 107.1 742.7 C105.38 742.71 103.67 742.71 101.95 742.71 C89.7 742.68 78.27 743.6 66.91 748.75 C63.78 750.16 60.85 751.41 57.48 752.13 C57.48 752.79 57.48 753.45 57.48 754.13 C53.09 757.13 53.09 757.13 50.48 757.13 C50.48 757.79 50.48 758.45 50.48 759.13 C48.98 760.56 48.98 760.56 47.04 762.13 C44.33 764.27 44.33 764.27 42.48 767.13 C41.82 767.13 41.16 767.13 40.48 767.13 C40.15 768.45 39.82 769.77 39.48 771.13 C38.82 771.13 38.16 771.13 37.48 771.13 C37.48 772.12 37.48 773.11 37.48 774.13 C36.82 774.13 36.16 774.13 35.48 774.13 C35.36 774.67 35.25 775.22 35.13 775.79 C34.37 778.52 33.26 780.97 32.1 783.56 C25 800.59 24.11 818.11 30.75 835.46 C31.61 837.51 32.48 839.54 33.39 841.57 C34.32 843.76 34.98 845.8 35.48 848.13 C36.14 848.13 36.8 848.13 37.48 848.13 C37.48 849.12 37.48 850.11 37.48 851.13 C38.14 851.13 38.8 851.13 39.48 851.13 C39.81 852.45 40.14 853.77 40.48 855.13 C41.14 855.13 41.8 855.13 42.48 855.13 C43.91 856.62 43.91 856.62 45.48 858.56 C47.62 861.28 47.62 861.28 50.48 863.13 C50.48 863.79 50.48 864.45 50.48 865.13 C51.26 865.44 52.04 865.75 52.85 866.06 C55.48 867.13 55.48 867.13 57.48 868.13 C57.48 868.79 57.48 869.45 57.48 870.13 C58.03 870.24 58.57 870.36 59.14 870.48 C62.83 871.5 66.24 873.19 69.72 874.78 C83.38 879.69 96.38 879.56 110.74 879.52 C113.21 879.52 115.69 879.53 118.17 879.54 C123.54 879.55 128.91 879.55 134.28 879.55 C142.27 879.54 150.26 879.55 158.25 879.57 C171.69 879.59 185.13 879.6 198.57 879.6 C211.87 879.6 225.17 879.61 238.48 879.62 C239.3 879.63 240.13 879.63 240.99 879.63 C245.19 879.63 249.4 879.64 253.6 879.64 C283.37 879.68 313.13 879.71 342.9 879.73 C350.1 879.73 357.31 879.73 364.52 879.74 C365.42 879.74 366.31 879.74 367.23 879.74 C388.03 879.75 408.83 879.77 429.62 879.79 C430.51 879.79 431.41 879.79 432.32 879.79 C452.66 879.81 473.01 879.83 493.35 879.85 C494.63 879.85 494.63 879.85 495.93 879.86 C503.61 879.86 511.3 879.87 518.98 879.88 C538.97 879.9 558.97 879.92 578.96 879.93 C591.49 879.94 604.02 879.95 616.55 879.96 C624.49 879.97 632.43 879.97 640.37 879.97 C646.28 879.97 652.19 879.98 658.1 879.99 C660.51 879.99 662.91 879.99 665.32 879.99 C668.56 879.99 671.81 879.99 675.05 880 C676 879.99 676.96 879.99 677.94 879.99 C684.36 880.01 684.36 880.01 685.48 881.13 C685.58 884.07 685.62 886.99 685.61 889.94 C685.61 890.82 685.61 891.71 685.61 892.62 C685.61 894.49 685.61 896.36 685.61 898.24 C685.6 901.11 685.61 903.99 685.61 906.87 C685.61 908.68 685.61 910.5 685.61 912.31 C685.61 913.18 685.61 914.05 685.62 914.94 C685.59 921.01 685.59 921.01 684.48 922.13 C681.3 922.23 678.15 922.26 674.98 922.26 C673.97 922.26 672.95 922.26 671.91 922.26 C668.46 922.27 665.02 922.27 661.57 922.27 C659.1 922.27 656.62 922.27 654.14 922.28 C648.02 922.28 641.9 922.29 635.77 922.29 C628.44 922.29 621.11 922.29 613.79 922.3 C596.06 922.32 578.34 922.32 560.61 922.33 C552.23 922.33 543.84 922.33 535.46 922.34 C506.76 922.35 478.06 922.36 449.36 922.36 C447.56 922.36 445.75 922.36 443.95 922.37 C442.14 922.37 440.34 922.37 438.53 922.37 C434.9 922.37 431.28 922.37 427.65 922.37 C426.3 922.37 426.3 922.37 424.93 922.37 C395.8 922.37 366.67 922.39 337.54 922.41 C306.75 922.44 275.96 922.45 245.17 922.45 C241.79 922.45 238.4 922.45 235.02 922.45 C233.77 922.45 233.77 922.45 232.5 922.45 C219.11 922.45 205.72 922.46 192.33 922.48 C178.85 922.49 165.38 922.5 151.91 922.49 C143.92 922.48 135.92 922.49 127.92 922.5 C121.94 922.51 115.96 922.51 109.98 922.5 C107.56 922.5 105.15 922.5 102.74 922.51 C87.26 922.56 72.08 922.56 57.69 916.09 C55.39 915.05 55.39 915.05 52.57 914.18 C44.17 911.32 35.3 906.85 28.48 901.13 C28.48 900.47 28.48 899.81 28.48 899.13 C27.8 898.92 27.12 898.71 26.41 898.5 C22.56 896.7 19.4 894.23 16.48 891.13 C16.48 890.47 16.48 889.81 16.48 889.13 C15.82 889.13 15.16 889.13 14.48 889.13 C12.79 887.52 12.79 887.52 10.91 885.38 C10.29 884.68 9.67 883.98 9.04 883.27 C7.49 881.15 6.9 879.69 6.48 877.13 C5.82 877.13 5.16 877.13 4.48 877.13 C-13.56 853.95 -18.86 824.23 -16.29 795.51 C-15.34 788.14 -13.5 781.14 -10.48 774.33 C-9.55 772.2 -8.91 770.11 -8.27 767.88 C-4.74 757.09 2.19 747.65 9.48 739.13 C10.44 737.92 11.39 736.71 12.35 735.5 C13.05 734.72 13.75 733.93 14.48 733.13 C15.14 733.13 15.8 733.13 16.48 733.13 C16.48 732.47 16.48 731.81 16.48 731.13 C23.46 723.74 32.49 717.98 41.41 713.24 C43.21 712.27 44.95 711.18 46.66 710.06 C51.24 707.39 56.48 706.3 61.56 704.96 C64.35 704.42 64.35 704.42 65.48 703.13 C76.89 700.27 87.99 699.7 99.7 699.74 C101.47 699.74 103.23 699.73 105 699.73 C108.76 699.71 112.53 699.71 116.29 699.72 C122.26 699.72 128.22 699.71 134.19 699.69 C147.92 699.65 161.66 699.64 175.39 699.62 C188 699.61 200.6 699.6 213.21 699.56 C219.13 699.54 225.05 699.53 230.97 699.54 C234.66 699.54 238.35 699.53 242.04 699.52 C243.74 699.51 245.44 699.51 247.14 699.52 C259.35 699.57 270.72 698.63 282.04 693.5 C285.18 692.1 288.11 690.84 291.48 690.13 C291.48 689.47 291.48 688.81 291.48 688.13 C292.47 688.13 293.46 688.13 294.48 688.13 C294.48 687.47 294.48 686.81 294.48 686.13 C295.8 685.8 297.12 685.47 298.48 685.13 C298.48 684.47 298.48 683.81 298.48 683.13 C299.97 681.69 299.97 681.69 301.91 680.13 C304.63 677.98 304.63 677.98 306.48 675.13 C307.14 675.13 307.8 675.13 308.48 675.13 C308.79 674.34 309.1 673.56 309.41 672.75 C310.48 670.13 310.48 670.13 311.48 668.13 C312.14 668.13 312.8 668.13 313.48 668.13 C313.59 667.58 313.71 667.03 313.83 666.47 C314.59 663.73 315.69 661.28 316.85 658.69 C323.96 641.66 324.85 624.14 318.2 606.79 C317.35 604.75 316.47 602.71 315.56 600.69 C314.63 598.49 313.97 596.45 313.48 594.13 C312.82 594.13 312.16 594.13 311.48 594.13 C311.48 593.14 311.48 592.15 311.48 591.13 C310.82 591.13 310.16 591.13 309.48 591.13 C309.15 589.81 308.82 588.49 308.48 587.13 C307.82 587.13 307.16 587.13 306.48 587.13 C305.04 585.63 305.04 585.63 303.48 583.69 C301.33 580.98 301.33 580.98 298.48 579.13 C298.48 578.47 298.48 577.81 298.48 577.13 C296.15 575.92 293.98 574.96 291.48 574.13 C291.48 573.47 291.48 572.81 291.48 572.13 C290.93 572.01 290.38 571.89 289.82 571.78 C286.12 570.75 282.72 569.06 279.23 567.48 C267.27 563.17 255.97 562.69 243.43 562.73 C241.54 562.72 239.65 562.71 237.76 562.71 C233.72 562.69 229.68 562.68 225.63 562.69 C219.24 562.69 212.84 562.67 206.44 562.65 C194.03 562.6 181.61 562.59 169.19 562.57 C153.36 562.55 137.54 562.51 121.72 562.46 C115.36 562.44 109.01 562.43 102.66 562.43 C98.7 562.43 94.75 562.42 90.79 562.4 C88.96 562.4 87.14 562.4 85.31 562.4 C82.81 562.41 80.3 562.4 77.8 562.39 C77.08 562.39 76.37 562.39 75.63 562.4 C71.04 562.36 66.86 561.68 62.41 560.59 C60.23 560.07 58.09 559.8 55.85 559.63 C49.18 558.95 43.28 556.72 37.12 554.17 C35.43 553.5 33.72 552.88 31.99 552.33 C18.11 547.87 5.77 539.14 -5.52 530.13 C-6.92 529.07 -6.92 529.07 -8.35 527.99 C-9.07 527.38 -9.78 526.76 -10.52 526.13 C-10.52 525.47 -10.52 524.81 -10.52 524.13 C-11.07 523.91 -11.61 523.7 -12.17 523.48 C-15.37 521.64 -17.68 519.13 -20.15 516.44 C-20.94 515.58 -20.94 515.58 -21.74 514.71 C-27.43 508.34 -32.05 501.38 -36.52 494.13 C-37.18 493.07 -37.84 492.02 -38.52 490.93 C-44.22 481.53 -48.29 471.61 -51.52 461.13 C-51.87 460.03 -52.22 458.94 -52.59 457.81 C-53.9 452.64 -54.7 447.4 -55.52 442.13 C-55.69 441.23 -55.87 440.33 -56.04 439.4 C-56.57 435.82 -56.65 432.42 -56.64 428.8 C-56.64 428.08 -56.64 427.37 -56.65 426.63 C-56.65 424.25 -56.64 421.86 -56.64 419.47 C-56.64 417.76 -56.64 416.04 -56.64 414.33 C-56.64 409.68 -56.63 405.03 -56.62 400.38 C-56.62 395.52 -56.62 390.66 -56.62 385.8 C-56.61 376.6 -56.6 367.4 -56.59 358.2 C-56.58 347.72 -56.58 337.25 -56.57 326.77 C-56.56 305.22 -56.55 283.67 -56.52 262.13 C-57.44 262.15 -58.35 262.17 -59.3 262.2 C-60.48 262.22 -61.67 262.23 -62.9 262.25 C-64.08 262.28 -65.26 262.3 -66.48 262.32 C-69.52 262.13 -69.52 262.13 -71.52 260.13 C-71.14 258.13 -70.73 256.14 -70.23 254.17 C-69.16 249.56 -68.43 244.91 -67.66 240.24 C-66.95 236.03 -65.89 232.19 -64.52 228.13 C-63.99 225.46 -63.48 222.81 -63.02 220.13 C-62.38 216.39 -61.74 212.76 -60.52 209.16 C-59.27 205.36 -58.65 201.57 -58.02 197.63 C-57.22 192.59 -56.16 187.98 -54.52 183.13 C-53.99 180.46 -53.48 177.81 -53.02 175.13 C-52.38 171.39 -51.74 167.76 -50.52 164.16 C-49.27 160.36 -48.65 156.57 -48.02 152.63 C-47.22 147.59 -46.17 142.97 -44.52 138.13 C-44.03 135.7 -43.57 133.26 -43.15 130.81 C-41.97 124.16 -40.51 117.6 -38.79 111.06 C-36.98 103.82 -36.59 97.58 -40.32 90.88 C-43.15 86.74 -46.83 84.59 -51.52 83.13 C-54.88 82.81 -58.23 82.78 -61.6 82.75 C-63.05 82.72 -63.05 82.72 -64.53 82.7 C-67.61 82.64 -70.69 82.6 -73.77 82.56 C-76.87 82.52 -79.96 82.47 -83.06 82.42 C-84.98 82.39 -86.91 82.36 -88.83 82.34 C-89.69 82.33 -90.56 82.31 -91.45 82.3 C-92.6 82.29 -92.6 82.29 -93.77 82.27 C-95.52 82.13 -95.52 82.13 -96.52 81.13 C-96.62 78.18 -96.66 75.26 -96.66 72.31 C-96.66 71.43 -96.66 70.55 -96.66 69.64 C-96.66 67.76 -96.66 65.89 -96.65 64.02 C-96.65 61.14 -96.65 58.26 -96.66 55.38 C-96.66 53.57 -96.66 51.75 -96.66 49.94 C-96.66 49.07 -96.66 48.21 -96.66 47.31 C-96.64 41.24 -96.64 41.24 -95.52 40.13 C-94.18 40.03 -92.84 39.99 -91.5 39.99 C-90.21 39.97 -90.21 39.97 -88.91 39.96 C-87.97 39.96 -87.04 39.96 -86.08 39.95 C-84.12 39.93 -82.15 39.9 -80.18 39.88 C-77.08 39.84 -73.98 39.81 -70.87 39.8 C-67.88 39.79 -64.89 39.75 -61.89 39.7 C-60.52 39.7 -60.52 39.7 -59.11 39.71 C-51.49 39.56 -46.19 37.68 -40.65 32.38 C-39.6 31.26 -39.6 31.26 -38.52 30.13 C-37.86 30.13 -37.2 30.13 -36.52 30.13 C-36.25 29.49 -35.99 28.85 -35.71 28.19 C-34.52 26.13 -34.52 26.13 -31.52 25.13 C-31.19 24.47 -30.86 23.81 -30.52 23.13 C-29.52 21.13 -29.52 21.13 -26.52 20.13 C-26.19 19.47 -25.86 18.81 -25.52 18.13 C-24.52 16.13 -24.52 16.13 -21.52 15.13 C-21.19 14.47 -20.86 13.81 -20.52 13.13 C-19.52 11.13 -19.52 11.13 -16.52 10.13 C-16.19 9.47 -15.86 8.81 -15.52 8.13 C-14.52 6.13 -14.52 6.13 -11.52 5.13 C-10.82 3.81 -10.16 2.48 -9.52 1.13 C-6.49 -0.39 -3.33 -0.01 0 0 Z " fill="#000000" transform="translate(155.52284240722656,338.8730163574219)"/>
<path d="M0 0 C0.88 0 1.76 0 2.67 0.01 C4.06 0 4.06 0 5.48 0 C8.61 -0 11.74 0 14.87 0 C17.1 0 19.34 0 21.57 -0 C27.66 -0.01 33.75 -0 39.84 -0 C46.2 0 52.55 -0 58.91 -0 C70.27 -0 81.63 -0 92.99 0 C103.31 0.01 113.62 0.01 123.93 0 C135.89 -0 147.85 -0 159.81 -0 C166.15 0 172.48 0 178.82 -0 C184.78 -0.01 190.73 -0 196.69 0 C198.88 0 201.07 0 203.26 0 C206.24 -0 209.22 0 212.2 0.01 C213.08 0 213.96 0 214.87 0 C220.82 0.02 220.82 0.02 221.93 1.13 C222.03 3.71 222.07 6.26 222.06 8.84 C222.06 9.66 222.06 10.47 222.07 11.32 C222.07 14.07 222.07 16.83 222.06 19.59 C222.07 21.56 222.07 23.53 222.07 25.5 C222.07 30.86 222.07 36.22 222.07 41.59 C222.07 47.19 222.07 52.79 222.07 58.39 C222.07 67.79 222.07 77.2 222.06 86.6 C222.06 97.49 222.06 108.39 222.07 119.28 C222.07 128.61 222.07 137.94 222.07 147.27 C222.07 152.86 222.07 158.44 222.07 164.02 C222.07 169.27 222.07 174.51 222.07 179.76 C222.06 181.69 222.06 183.62 222.07 185.55 C222.07 188.18 222.07 190.8 222.06 193.43 C222.06 194.2 222.07 194.98 222.07 195.77 C222.05 201.02 222.05 201.02 220.93 202.13 C219.46 202.23 217.99 202.26 216.51 202.27 C215.07 202.27 215.07 202.27 213.6 202.28 C212.53 202.28 211.46 202.28 210.36 202.28 C208.67 202.29 208.67 202.29 206.95 202.29 C203.14 202.3 199.34 202.31 195.54 202.31 C192.82 202.32 190.11 202.32 187.39 202.33 C179.22 202.35 171.05 202.36 162.88 202.37 C159.03 202.37 155.18 202.38 151.34 202.38 C138.55 202.4 125.76 202.42 112.97 202.42 C109.65 202.43 106.33 202.43 103.01 202.43 C101.77 202.43 101.77 202.43 100.5 202.43 C87.14 202.44 73.78 202.46 60.41 202.5 C46.7 202.53 32.98 202.55 19.26 202.55 C11.56 202.55 3.86 202.56 -3.85 202.59 C-10.41 202.61 -16.97 202.62 -23.53 202.61 C-26.88 202.6 -30.23 202.61 -33.57 202.62 C-37.21 202.64 -40.84 202.63 -44.47 202.62 C-45.53 202.63 -46.58 202.64 -47.66 202.65 C-54.35 202.6 -59.19 201.31 -65.07 198.13 C-66.4 197.46 -67.73 196.8 -69.07 196.13 C-69.07 195.47 -69.07 194.81 -69.07 194.13 C-70.06 193.8 -71.05 193.47 -72.07 193.13 C-72.07 192.47 -72.07 191.81 -72.07 191.13 C-72.73 191.13 -73.39 191.13 -74.07 191.13 C-74.88 189.53 -75.69 187.93 -76.5 186.32 C-76.96 185.43 -77.41 184.53 -77.87 183.61 C-81.16 176.76 -81.15 169.17 -79.19 161.88 C-76.55 154.83 -73.13 148.17 -69.69 141.48 C-67.84 137.68 -66.46 133.84 -65.09 129.85 C-63.54 125.75 -61.51 121.93 -59.5 118.04 C-58.21 115.43 -57.11 112.84 -56.07 110.13 C-54.61 106.35 -52.92 102.8 -51.07 99.2 C-49.12 95.4 -47.46 91.67 -46.07 87.63 C-44.3 82.52 -41.98 77.84 -39.5 73.04 C-38.21 70.43 -37.11 67.84 -36.07 65.13 C-34.61 61.35 -32.92 57.8 -31.07 54.2 C-29.12 50.4 -27.46 46.67 -26.07 42.63 C-24.3 37.52 -21.97 32.83 -19.5 28.03 C-18.23 25.47 -17.15 22.93 -16.13 20.26 C-14.45 15.9 -12.47 11.74 -10.38 7.57 C-9.91 6.64 -9.91 6.64 -9.44 5.69 C-6.68 0.24 -6.2 0.02 0 0 Z " fill="#000000" transform="translate(999.0657162666321,278.8662565946579)"/>
<path d="M0 0 C1.01 -0 2.02 -0.01 3.06 -0.01 C4.18 -0.01 5.29 -0 6.44 -0 C8.2 -0.01 8.2 -0.01 9.99 -0.01 C13.2 -0.01 16.42 -0.01 19.63 -0.01 C22.99 -0 26.35 -0.01 29.7 -0.01 C35.34 -0.01 40.98 -0.01 46.62 -0 C53.15 0 59.68 0 66.21 -0.01 C71.8 -0.01 77.4 -0.01 82.99 -0.01 C86.34 -0.01 89.69 -0.01 93.03 -0.01 C96.76 -0.01 100.49 -0.01 104.22 -0 C105.33 -0 106.45 -0.01 107.6 -0.01 C109.12 -0 109.12 -0 110.66 0 C111.99 0 111.99 0 113.34 0 C115.33 0.13 115.33 0.13 116.33 1.13 C116.46 3.32 116.52 5.52 116.56 7.72 C116.57 8.76 116.57 8.76 116.59 9.81 C116.7 17.05 116.75 24.29 116.79 31.52 C116.81 34.96 116.85 38.39 116.91 41.82 C116.99 45.96 117.02 50.1 117.03 54.25 C117.04 55.83 117.07 57.4 117.1 58.98 C117.39 72.85 117.39 72.85 113.2 77.74 C111.94 78.9 110.65 80.03 109.33 81.13 C108.22 82.24 107.12 83.35 106.03 84.48 C104.91 85.57 103.79 86.66 102.66 87.75 C101.43 88.97 100.19 90.18 98.96 91.39 C97.05 93.27 95.13 95.14 93.21 97 C91.33 98.82 89.47 100.66 87.6 102.5 C87.03 103.05 86.46 103.59 85.87 104.16 C79.7 110.29 76.92 115.97 76.75 124.72 C76.75 125.63 76.75 126.55 76.76 127.5 C76.74 128.94 76.74 128.94 76.71 130.42 C76.67 133.47 76.66 136.51 76.64 139.56 C76.61 142.64 76.58 145.71 76.54 148.79 C76.52 150.7 76.5 152.6 76.49 154.51 C76.49 155.37 76.48 156.22 76.47 157.1 C76.47 157.86 76.47 158.61 76.46 159.39 C76.33 161.13 76.33 161.13 75.33 162.13 C72.39 162.23 69.46 162.27 66.52 162.26 C65.63 162.26 64.75 162.26 63.84 162.26 C61.97 162.26 60.09 162.26 58.22 162.26 C55.34 162.25 52.47 162.26 49.59 162.26 C47.77 162.26 45.96 162.26 44.14 162.26 C43.28 162.26 42.41 162.26 41.52 162.27 C35.45 162.24 35.45 162.24 34.33 161.13 C34.23 159.79 34.2 158.44 34.19 157.1 C34.18 156.25 34.17 155.39 34.17 154.51 C34.16 153.58 34.16 152.65 34.16 151.69 C34.13 149.72 34.11 147.75 34.08 145.79 C34.05 142.68 34.02 139.58 34 136.47 C33.99 133.48 33.95 130.49 33.91 127.5 C33.91 126.58 33.91 125.66 33.91 124.72 C33.77 117.09 31.88 111.8 26.58 106.25 C25.47 105.2 25.47 105.2 24.33 104.13 C24.33 103.47 24.33 102.81 24.33 102.13 C23.69 101.86 23.05 101.59 22.39 101.31 C20.33 100.13 20.33 100.13 19.33 97.13 C18.67 96.8 18.01 96.47 17.33 96.13 C15.33 95.13 15.33 95.13 14.33 92.13 C13.67 91.8 13.01 91.47 12.33 91.13 C10.33 90.13 10.33 90.13 9.33 87.13 C8.67 86.8 8.01 86.47 7.33 86.13 C5.33 85.13 5.33 85.13 4.33 82.13 C3.67 81.8 3.01 81.47 2.33 81.13 C0.33 80.13 0.33 80.13 -0.67 77.13 C-1.99 76.43 -3.32 75.76 -4.67 75.13 C-6.14 72.19 -5.8 69.59 -5.8 66.31 C-5.8 65.26 -5.8 65.26 -5.8 64.18 C-5.81 61.86 -5.81 59.54 -5.8 57.22 C-5.8 55.61 -5.8 54 -5.8 52.39 C-5.81 49.02 -5.8 45.64 -5.8 42.27 C-5.79 37.94 -5.8 33.6 -5.8 29.27 C-5.81 25.95 -5.81 22.62 -5.8 19.3 C-5.8 17.7 -5.8 16.1 -5.81 14.51 C-5.81 12.28 -5.8 10.05 -5.8 7.82 C-5.8 6.55 -5.8 5.28 -5.8 3.97 C-5.59 -0.63 -4.15 0 0 0 Z " fill="#000000" transform="translate(204.669189453125,138.87301635742188)"/>
<path d="M0 0 C1.58 0.87 1.58 0.87 3.19 1.75 C7.9 4.12 12.79 5.58 17.84 7.06 C20.43 7.83 22.96 8.66 25.5 9.56 C46.78 16.64 68.9 16.34 91.06 16.56 C95.07 16.61 99.07 16.65 103.08 16.71 C105.56 16.74 108.03 16.76 110.51 16.79 C112.16 16.81 112.16 16.81 113.85 16.83 C114.82 16.84 115.8 16.85 116.8 16.86 C119 17 119 17 120 18 C120.12 19.43 120.17 20.87 120.19 22.31 C120.21 23.23 120.22 24.15 120.24 25.1 C120.29 29.36 120.33 33.61 120.35 37.87 C120.37 40.1 120.39 42.33 120.43 44.57 C120.84 68.25 120.84 68.25 115 79 C114.67 79.66 114.34 80.32 114 81 C113.34 81 112.68 81 112 81 C111.76 81.74 111.52 82.48 111.27 83.25 C107.57 91.26 98.33 95.1 90.5 97.98 C84.96 99.59 79.68 99.72 73.94 99.66 C72.74 99.67 71.55 99.67 70.32 99.68 C67.82 99.68 65.31 99.67 62.81 99.65 C59.01 99.63 55.21 99.65 51.41 99.68 C48.96 99.68 46.51 99.67 44.06 99.66 C42.95 99.67 41.83 99.68 40.68 99.69 C29.58 99.53 19.08 96.38 11.19 88.31 C10.67 87.83 10.16 87.34 9.63 86.84 C8.36 85.62 7.17 84.31 6 83 C6 82.34 6 81.68 6 81 C5.34 81 4.68 81 4 81 C3.18 79.25 2.37 77.5 1.56 75.75 C1.11 74.78 0.66 73.8 0.19 72.8 C-1.72 68.32 -2.13 64.69 -2.15 59.81 C-2.15 58.56 -2.16 57.31 -2.16 56.02 C-2.17 54.66 -2.17 53.3 -2.17 51.93 C-2.17 50.53 -2.17 49.13 -2.18 47.73 C-2.18 44.81 -2.19 41.88 -2.19 38.95 C-2.19 35.19 -2.2 31.44 -2.22 27.68 C-2.23 24.79 -2.23 21.9 -2.23 19.02 C-2.23 17.63 -2.23 16.25 -2.24 14.86 C-2.25 12.93 -2.25 10.99 -2.24 9.06 C-2.24 7.96 -2.25 6.86 -2.25 5.73 C-2 3 -2 3 0 0 Z " fill="#000000" transform="translate(781,982)"/>
<path d="M0 0 C0.86 -0 1.72 -0.01 2.61 -0.02 C5.47 -0.03 8.33 -0.04 11.2 -0.04 C13.19 -0.05 15.18 -0.05 17.17 -0.06 C21.35 -0.07 25.54 -0.08 29.72 -0.08 C35.06 -0.08 40.4 -0.11 45.74 -0.14 C49.86 -0.16 53.98 -0.16 58.1 -0.16 C60.07 -0.17 62.03 -0.17 64 -0.19 C76.76 -0.27 87.74 0.15 99.3 6.22 C100.77 6.98 100.77 6.98 102.27 7.76 C104.8 9.16 104.8 9.16 107.8 11.16 C107.8 11.82 107.8 12.48 107.8 13.16 C108.53 13.4 109.27 13.64 110.02 13.88 C119.61 18.3 126.18 30.64 129.8 40.16 C126.42 42.42 125.28 42.41 121.32 42.41 C120.18 42.41 119.04 42.42 117.87 42.42 C116.62 42.42 115.37 42.41 114.08 42.4 C112.77 42.41 111.45 42.41 110.1 42.41 C106.49 42.41 102.88 42.41 99.27 42.4 C95.5 42.39 91.72 42.39 87.95 42.39 C81.62 42.39 75.28 42.38 68.95 42.37 C61.62 42.35 54.29 42.35 46.95 42.35 C39.91 42.35 32.87 42.34 25.82 42.33 C22.82 42.33 19.82 42.33 16.81 42.33 C12.63 42.33 8.44 42.32 4.26 42.31 C3 42.31 1.75 42.31 0.46 42.31 C-0.68 42.3 -1.81 42.3 -2.98 42.29 C-4.46 42.29 -4.46 42.29 -5.98 42.29 C-8.2 42.16 -8.2 42.16 -9.2 41.16 C-9.3 38.22 -9.34 35.29 -9.33 32.35 C-9.33 31.46 -9.34 30.58 -9.34 29.67 C-9.34 27.8 -9.34 25.92 -9.33 24.05 C-9.33 21.17 -9.33 18.3 -9.34 15.42 C-9.34 13.6 -9.34 11.79 -9.33 9.97 C-9.34 9.11 -9.34 8.24 -9.34 7.35 C-9.31 -0.89 -7.52 0.01 0 0 Z " fill="#000000" transform="translate(808.20068359375,698.8388671875)"/>
<path d="M0 0 C1.01 -0 2.02 -0.01 3.06 -0.01 C4.18 -0.01 5.29 -0 6.44 -0 C8.2 -0.01 8.2 -0.01 9.99 -0.01 C13.2 -0.01 16.42 -0.01 19.63 -0.01 C22.99 -0 26.35 -0.01 29.7 -0.01 C35.34 -0.01 40.98 -0.01 46.62 -0 C53.15 0 59.68 0 66.21 -0.01 C71.8 -0.01 77.4 -0.01 82.99 -0.01 C86.34 -0.01 89.69 -0.01 93.03 -0.01 C96.76 -0.01 100.49 -0.01 104.22 -0 C105.33 -0 106.45 -0.01 107.6 -0.01 C109.12 -0 109.12 -0 110.66 0 C111.99 0 111.99 0 113.34 0 C115.33 0.13 115.33 0.13 116.33 1.13 C116.43 4.07 116.47 6.99 116.46 9.94 C116.46 10.82 116.47 11.71 116.47 12.62 C116.47 14.49 116.47 16.36 116.46 18.24 C116.46 21.11 116.46 23.99 116.47 26.87 C116.47 28.68 116.47 30.5 116.46 32.31 C116.47 33.18 116.47 34.05 116.47 34.94 C116.45 41.01 116.45 41.01 115.33 42.13 C113.78 42.23 112.22 42.25 110.66 42.25 C109.15 42.26 109.15 42.26 107.6 42.26 C105.93 42.26 105.93 42.26 104.22 42.26 C102.46 42.26 102.46 42.26 100.68 42.26 C97.46 42.27 94.25 42.26 91.03 42.26 C87.67 42.26 84.32 42.26 80.96 42.26 C75.32 42.26 69.68 42.26 64.04 42.26 C57.51 42.25 50.98 42.25 44.46 42.26 C38.86 42.26 33.26 42.26 27.67 42.26 C24.32 42.26 20.98 42.26 17.63 42.26 C13.9 42.27 10.17 42.26 6.44 42.26 C5.33 42.26 4.21 42.26 3.06 42.26 C2.05 42.26 1.04 42.26 0 42.25 C-0.88 42.25 -1.77 42.25 -2.67 42.25 C-4.67 42.13 -4.67 42.13 -5.67 41.13 C-5.77 38.18 -5.81 35.26 -5.8 32.31 C-5.8 31.43 -5.8 30.55 -5.8 29.64 C-5.81 27.76 -5.8 25.89 -5.8 24.02 C-5.79 21.14 -5.8 18.26 -5.81 15.38 C-5.81 13.57 -5.8 11.75 -5.8 9.94 C-5.8 9.07 -5.81 8.21 -5.81 7.31 C-5.78 0 -5.78 0 0 0 Z " fill="#000000" transform="translate(204.669189453125,58.873016357421875)"/>
<path d="M0 0 C4.6 1.84 5.64 2.29 8.5 5.81 C11.2 9.05 13.98 12.06 17 15 C37 35 57 55 77 75 C77.74 75.7 78.49 76.4 79.25 77.12 C81 79 81 79 82 82 C72.76 91.24 63.52 100.48 54 110 C52.35 109.34 50.7 108.68 49 108 C49 107.34 49 106.68 49 106 C47.51 105.5 47.51 105.5 46 105 C46 104.34 46 103.68 46 103 C45.34 103 44.68 103 44 103 C44 102.34 44 101.68 44 101 C42.51 100.5 42.51 100.5 41 100 C41 99.34 41 98.68 41 98 C40.34 98 39.68 98 39 98 C39 97.34 39 96.68 39 96 C37.51 95.5 37.51 95.5 36 95 C36 94.34 36 93.68 36 93 C35.34 93 34.68 93 34 93 C34 92.34 34 91.68 34 91 C33.01 90.67 32.02 90.34 31 90 C31 89.34 31 88.68 31 88 C30.34 88 29.68 88 29 88 C29 87.34 29 86.68 29 86 C28.01 85.67 27.02 85.34 26 85 C26 84.34 26 83.68 26 83 C25.34 83 24.68 83 24 83 C24 82.34 24 81.68 24 81 C23.01 80.67 22.02 80.34 21 80 C21 79.34 21 78.68 21 78 C20.34 78 19.68 78 19 78 C19 77.34 19 76.68 19 76 C18.01 75.67 17.02 75.34 16 75 C16 74.34 16 73.68 16 73 C15.34 73 14.68 73 14 73 C14 72.34 14 71.68 14 71 C13.01 70.67 12.02 70.34 11 70 C11 69.34 11 68.68 11 68 C10.34 68 9.68 68 9 68 C9 67.34 9 66.68 9 66 C8.01 65.67 7.02 65.34 6 65 C6 64.34 6 63.68 6 63 C5.34 63 4.68 63 4 63 C4 62.34 4 61.68 4 61 C2.51 60.5 2.51 60.5 1 60 C1 59.34 1 58.68 1 58 C0.34 58 -0.32 58 -1 58 C-1 57.34 -1 56.68 -1 56 C-2.49 55.5 -2.49 55.5 -4 55 C-4 54.34 -4 53.68 -4 53 C-4.66 53 -5.32 53 -6 53 C-6 52.34 -6 51.68 -6 51 C-7.49 50.5 -7.49 50.5 -9 50 C-9 49.34 -9 48.68 -9 48 C-9.66 48 -10.32 48 -11 48 C-11 47.34 -11 46.68 -11 46 C-12.49 45.5 -12.49 45.5 -14 45 C-14 44.34 -14 43.68 -14 43 C-14.66 43 -15.32 43 -16 43 C-16 42.34 -16 41.68 -16 41 C-16.99 40.67 -17.98 40.34 -19 40 C-19 39.34 -19 38.68 -19 38 C-19.66 38 -20.32 38 -21 38 C-21 37.34 -21 36.68 -21 36 C-21.99 35.67 -22.98 35.34 -24 35 C-24 34.34 -24 33.68 -24 33 C-24.66 33 -25.32 33 -26 33 C-26.66 31.35 -27.32 29.7 -28 28 C-18.76 18.76 -9.52 9.52 0 0 Z " fill="#000000" transform="translate(513,445)"/>
<path d="M0 0 C6.55 5.39 12.47 11.36 18.44 17.38 C19.47 18.41 20.49 19.44 21.52 20.47 C24.02 22.98 26.51 25.49 29 28 C27.57 31.84 26.39 33.9 23.19 36.5 C19.95 39.2 16.94 41.98 14 45 C-7.67 66.67 -29.33 88.33 -51 110 C-55.2 108.36 -57.99 105.27 -61.08 102.12 C-61.65 101.54 -62.22 100.97 -62.81 100.38 C-64.63 98.55 -66.44 96.71 -68.25 94.88 C-69.48 93.63 -70.72 92.39 -71.95 91.14 C-74.97 88.1 -77.99 85.05 -81 82 C-80.34 80.35 -79.68 78.7 -79 77 C-78.34 77 -77.68 77 -77 77 C-76.67 76.01 -76.34 75.02 -76 74 C-75.34 74 -74.68 74 -74 74 C-74 73.34 -74 72.68 -74 72 C-73.34 72 -72.68 72 -72 72 C-71.67 71.01 -71.34 70.02 -71 69 C-70.34 69 -69.68 69 -69 69 C-69 68.34 -69 67.68 -69 67 C-68.34 67 -67.68 67 -67 67 C-66.67 66.01 -66.34 65.02 -66 64 C-65.34 64 -64.68 64 -64 64 C-64 63.34 -64 62.68 -64 62 C-63.34 62 -62.68 62 -62 62 C-61.67 61.01 -61.34 60.02 -61 59 C-60.34 59 -59.68 59 -59 59 C-59 58.34 -59 57.68 -59 57 C-58.34 57 -57.68 57 -57 57 C-56.67 56.01 -56.34 55.02 -56 54 C-55.34 54 -54.68 54 -54 54 C-54 53.34 -54 52.68 -54 52 C-53.34 52 -52.68 52 -52 52 C-51.67 51.01 -51.34 50.02 -51 49 C-50.34 49 -49.68 49 -49 49 C-49 48.34 -49 47.68 -49 47 C-48.34 47 -47.68 47 -47 47 C-46.67 46.01 -46.34 45.02 -46 44 C-45.34 44 -44.68 44 -44 44 C-44 43.34 -44 42.68 -44 42 C-43.34 42 -42.68 42 -42 42 C-41.67 41.01 -41.34 40.02 -41 39 C-40.34 39 -39.68 39 -39 39 C-39 38.34 -39 37.68 -39 37 C-38.34 37 -37.68 37 -37 37 C-36.67 36.01 -36.34 35.02 -36 34 C-35.34 34 -34.68 34 -34 34 C-34 33.34 -34 32.68 -34 32 C-33.34 32 -32.68 32 -32 32 C-31.5 30.51 -31.5 30.51 -31 29 C-30.34 29 -29.68 29 -29 29 C-29 28.34 -29 27.68 -29 27 C-28.34 27 -27.68 27 -27 27 C-26.5 25.51 -26.5 25.51 -26 24 C-25.34 24 -24.68 24 -24 24 C-24 23.34 -24 22.68 -24 22 C-23.34 22 -22.68 22 -22 22 C-21.5 20.51 -21.5 20.51 -21 19 C-20.34 19 -19.68 19 -19 19 C-19 18.34 -19 17.68 -19 17 C-18.34 17 -17.68 17 -17 17 C-16.5 15.51 -16.5 15.51 -16 14 C-15.34 14 -14.68 14 -14 14 C-14 13.34 -14 12.68 -14 12 C-13.34 12 -12.68 12 -12 12 C-11.67 11.01 -11.34 10.02 -11 9 C-10.34 9 -9.68 9 -9 9 C-9 8.34 -9 7.68 -9 7 C-8.34 7 -7.68 7 -7 7 C-6.67 6.01 -6.34 5.02 -6 4 C-5.34 4 -4.68 4 -4 4 C-4 3.34 -4 2.68 -4 2 C-2.68 1.34 -1.36 0.68 0 0 Z " fill="#000000" transform="translate(566,205)"/>
<path d="M0 0 C1.02 -0 2.05 -0 3.1 -0.01 C6.48 -0.01 9.85 0 13.23 0.01 C15.58 0.01 17.92 0.01 20.27 0.01 C25.17 0.02 30.08 0.02 34.99 0.04 C41.3 0.05 47.61 0.06 53.92 0.06 C58.75 0.06 63.59 0.06 68.43 0.07 C70.76 0.07 73.08 0.08 75.41 0.08 C78.65 0.08 81.89 0.09 85.14 0.1 C86.11 0.1 87.08 0.1 88.08 0.1 C88.95 0.1 89.83 0.1 90.74 0.11 C91.5 0.11 92.27 0.11 93.06 0.11 C94.81 0.24 94.81 0.24 95.81 1.24 C97.1 15.63 92.91 27.98 85.81 40.24 C83.18 42.87 81.27 42.5 77.68 42.54 C76.83 42.54 75.97 42.53 75.08 42.53 C74.18 42.54 73.27 42.55 72.34 42.55 C69.34 42.57 66.34 42.58 63.33 42.58 C61.25 42.59 59.16 42.59 57.08 42.6 C52.7 42.61 48.32 42.61 43.94 42.61 C38.33 42.61 32.73 42.64 27.13 42.68 C22.82 42.7 18.51 42.7 14.2 42.7 C12.13 42.7 10.07 42.71 8 42.73 C5.11 42.75 2.21 42.74 -0.69 42.73 C-1.53 42.74 -2.38 42.75 -3.25 42.76 C-9.92 42.69 -15.13 40.88 -20.21 36.5 C-24.86 30.68 -26.69 26.35 -26.5 18.8 C-25.68 12.04 -22.18 7.71 -17.07 3.47 C-11.52 -0.15 -6.43 -0.04 0 0 Z " fill="#000000" transform="translate(685.1904296875,438.757080078125)"/>
<path d="M0 0 C1.54 0.01 3.09 0.01 4.63 0.01 C8.64 0.03 12.64 0.07 16.65 0.12 C19.94 0.16 23.23 0.17 26.53 0.18 C30.46 0.2 34.38 0.22 38.31 0.25 C39.43 0.26 39.43 0.26 40.58 0.26 C42.68 0.28 44.78 0.3 46.87 0.33 C48.07 0.34 49.26 0.36 50.49 0.37 C53.16 0.52 53.16 0.52 54.16 1.52 C54.26 4.47 54.3 7.39 54.29 10.34 C54.29 11.22 54.29 12.1 54.3 13.01 C54.3 14.89 54.29 16.76 54.29 18.63 C54.29 21.51 54.29 24.39 54.3 27.27 C54.3 29.08 54.29 30.9 54.29 32.71 C54.29 33.58 54.3 34.44 54.3 35.34 C54.28 41.41 54.28 41.41 53.16 42.52 C51.67 42.63 50.18 42.66 48.69 42.66 C47.73 42.67 46.76 42.68 45.77 42.68 C44.17 42.68 44.17 42.68 42.54 42.68 C40.86 42.69 40.86 42.69 39.15 42.7 C35.44 42.71 31.73 42.72 28.01 42.73 C25.44 42.73 22.87 42.74 20.3 42.74 C15.6 42.75 10.89 42.76 6.19 42.76 C-0.74 42.77 -7.67 42.78 -14.6 42.81 C-20.6 42.84 -26.6 42.85 -32.59 42.85 C-35.15 42.85 -37.7 42.86 -40.26 42.87 C-43.82 42.89 -47.39 42.89 -50.96 42.88 C-52.02 42.89 -53.08 42.9 -54.18 42.91 C-55.15 42.9 -56.12 42.9 -57.12 42.89 C-57.96 42.89 -58.81 42.89 -59.68 42.9 C-62.3 42.44 -63.18 41.55 -64.84 39.52 C-52.83 16.81 -52.83 16.81 -42.84 13.52 C-42.84 12.86 -42.84 12.2 -42.84 11.52 C-30.7 1.57 -15.03 -0.24 0 0 Z " fill="#000000" transform="translate(1166.83984375,698.4765625)"/>
<path d="M0 0 C1.39 0 1.39 0 2.82 0.01 C4.28 0 4.28 0 5.77 0 C9.01 -0 12.24 -0 15.48 0 C17.72 0 19.95 0 22.19 -0 C26.89 -0 31.59 0 36.29 0.01 C42.32 0.01 48.36 0.01 54.4 0 C59.02 -0 63.64 -0 68.27 0 C70.49 0 72.72 0 74.95 -0 C78.05 -0 81.16 0 84.26 0.01 C85.19 0 86.12 0 87.08 0 C93.43 0.02 93.43 0.02 94.54 1.14 C94.64 4.08 94.68 7 94.67 9.95 C94.67 10.83 94.68 11.72 94.68 12.63 C94.68 14.5 94.68 16.37 94.67 18.25 C94.67 21.12 94.67 24 94.68 26.88 C94.68 28.69 94.68 30.51 94.67 32.32 C94.68 33.19 94.68 34.06 94.68 34.95 C94.66 41.02 94.66 41.02 93.54 42.14 C90.44 42.24 87.36 42.27 84.26 42.26 C83.29 42.27 82.32 42.27 81.31 42.27 C78.08 42.27 74.84 42.27 71.6 42.27 C69.36 42.27 67.13 42.27 64.89 42.27 C60.19 42.27 55.49 42.27 50.8 42.27 C44.76 42.26 38.72 42.26 32.69 42.27 C28.06 42.27 23.44 42.27 18.81 42.27 C16.59 42.27 14.36 42.27 12.14 42.27 C9.03 42.27 5.92 42.27 2.82 42.26 C1.89 42.27 0.96 42.27 0 42.27 C-6.35 42.25 -6.35 42.25 -7.46 41.14 C-7.56 38.19 -7.6 35.27 -7.59 32.32 C-7.59 31.44 -7.59 30.55 -7.6 29.64 C-7.6 27.77 -7.59 25.9 -7.59 24.03 C-7.58 21.15 -7.59 18.27 -7.6 15.39 C-7.6 13.58 -7.59 11.76 -7.59 9.95 C-7.59 9.08 -7.6 8.21 -7.6 7.32 C-7.57 -0.01 -7.3 0.02 0 0 Z " fill="#000000" transform="translate(506.4594421386719,358.8644714355469)"/>
<path d="M0 0 C4.75 0.53 9.39 1.44 14.06 2.44 C15.23 2.68 16.4 2.93 17.6 3.18 C20.81 3.96 23.87 4.95 27 6 C29.24 6.5 31.49 6.92 33.75 7.34 C36.86 8.25 38.52 8.8 41 11 C41.79 14.54 41.7 18.07 41.66 21.69 C41.67 22.74 41.67 23.8 41.68 24.88 C41.68 27.11 41.67 29.34 41.65 31.57 C41.63 34.99 41.65 38.4 41.68 41.82 C41.68 43.98 41.67 46.15 41.66 48.31 C41.67 49.34 41.68 50.36 41.69 51.42 C41.65 54.04 41.57 56.44 41 59 C37.59 62.07 33.6 62.82 29.19 63.94 C28.54 64.1 27.9 64.27 27.23 64.43 C25.87 64.78 24.5 65.13 23.13 65.47 C20.96 66.01 18.8 66.58 16.64 67.14 C15.22 67.51 13.8 67.88 12.38 68.25 C11.71 68.43 11.05 68.6 10.37 68.78 C6.85 69.68 3.64 70.3 0 70 C-1.85 68.15 -1.13 65.13 -1.13 62.66 C-1.13 61.67 -1.13 61.67 -1.13 60.65 C-1.14 58.46 -1.14 56.26 -1.13 54.06 C-1.13 52.54 -1.13 51.02 -1.14 49.5 C-1.14 46.31 -1.14 43.12 -1.13 39.93 C-1.12 35.83 -1.13 31.73 -1.13 27.63 C-1.14 24.49 -1.14 21.35 -1.13 18.2 C-1.13 16.69 -1.13 15.18 -1.14 13.67 C-1.14 11.56 -1.13 9.45 -1.13 7.34 C-1.13 6.14 -1.13 4.93 -1.13 3.7 C-1 1 -1 1 0 0 Z " fill="#000000" transform="translate(380,345)"/>
<path d="M0 0 C5.16 3.52 7.89 7.23 9.75 13.2 C10.68 20.1 9.69 25.43 5.75 31.2 C1.8 36 -2.39 38.68 -8.64 39.52 C-14.68 39.79 -19.34 38.8 -24.25 35.2 C-29.53 30.24 -32.27 25.68 -32.62 18.38 C-32.47 12.3 -30.77 7.89 -26.6 3.44 C-18.8 -3.61 -9.39 -5.41 0 0 Z " fill="#000000" transform="translate(1031.25,841.8046875)"/>
</svg>
